<svg xmlns="http://www.w3.org/2000/svg" xmlns:ns1="http://sozi.baierouge.fr" xmlns:svg="http://www.w3.org/2000/svg" xmlns:xlink="http://www.w3.org/1999/xlink" id="svg2" version="1.1" viewBox="0 0 444.47 310.87"><defs id="defs4"><radialGradient id="radialGradient4309" cx="368.58" cy="351.05" r="185.64" gradientTransform="matrix(1 0 0 .54810 0 141.63)" gradientUnits="userSpaceOnUse"><stop id="stop4197" offset="0" style="stop-color:#e2e2e2"/><stop id="stop4199" offset="1" style="stop-color:#989898"/></radialGradient><linearGradient id="linearGradient4311" x1="369.95" x2="369.95" y1="346.56" y2="321.49" gradientUnits="userSpaceOnUse"><stop id="stop4220" offset="0" style="stop-color:#838383"/><stop id="stop4222" offset="1" style="stop-color:#c6c6c6;stop-opacity:0"/></linearGradient><linearGradient id="linearGradient4313" x1="368.58" x2="388.13" y1="327.72" y2="378.81" gradientTransform="translate(0 -60)" gradientUnits="userSpaceOnUse"><stop id="stop4265" offset="0" style="stop-color:#461f00"/><stop id="stop4267" offset="1" style="stop-color:#753300"/></linearGradient><linearGradient id="linearGradient4315" x1="368.58" x2="368.58" y1="362.58" y2="327.72" gradientTransform="translate(0 -60)" gradientUnits="userSpaceOnUse"><stop id="stop4275" offset="0" style="stop-color:#fff"/><stop id="stop4277" offset="1" style="stop-color:#fff;stop-opacity:0"/></linearGradient><filter id="filter4335" width="1.36" height="2.809" x="-.18" y="-.905" color-interpolation-filters="sRGB"><feGaussianBlur id="feGaussianBlur4337" stdDeviation="12.063"/></filter><radialGradient id="radialGradient4339" cx="408.1" cy="582.55" r="222.23" gradientTransform="matrix(1 0 0 .18691 0 409.16)" gradientUnits="userSpaceOnUse"><stop id="stop4109" offset="0" style="stop-color:#e9e9e9"/><stop id="stop4119" offset="1" style="stop-color:#b3b3b3"/></radialGradient></defs><g id="layer1" transform="translate(-145.59 -250.53)"><path id="path4182" d="m630.34 492.74c0 34.589-99.497 62.629-222.23 62.629-122.74 0-222.23-28.04-222.23-62.629s99.497-62.629 222.23-62.629c122.74 0 222.23 28.04 222.23 62.629z" transform="matrix(.94938 0 0 1.0617 -20.871 -28.258)" style="fill-rule:evenodd;fill:#595959"/><path id="path4159" d="m630.34 492.74c0 34.589-99.497 62.629-222.23 62.629-122.74 0-222.23-28.04-222.23-62.629s99.497-62.629 222.23-62.629c122.74 0 222.23 28.04 222.23 62.629z" transform="translate(-40.279 -1.7029)" style="fill-rule:evenodd;fill:#f2f2f2"/><path id="path3333" d="m630.34 492.74c0 34.589-99.497 62.629-222.23 62.629-122.74 0-222.23-28.04-222.23-62.629s99.497-62.629 222.23-62.629c122.74 0 222.23 28.04 222.23 62.629z" transform="translate(-40.279 -5.7029)" style="fill-rule:evenodd;fill:url(#radialGradient4339)"/><path id="path4186" d="m487.21 550.38c0 16.308-55.242 29.528-123.39 29.528-68.144 0-123.39-13.22-123.39-29.528s55.242-29.528 123.39-29.528c68.144 0 123.39 13.22 123.39 29.528z" transform="translate(6 -66)" style="fill-opacity:.40698;fill:#858585"/><path id="path4317" d="m448 483.36c0 8.8366-36.041 16-80.5 16s-80.5-7.1634-80.5-16 36.041-16 80.5-16 80.5 7.1634 80.5 16z" transform="matrix(.93409 0 0 .91146 23.008 44.818)" style="opacity:.75;filter:url(#filter4335);fill:#000"/><g id="g4295" transform="translate(0,4)"><path id="path4188" d="m182.94 284.44c18.733 116.39 94.715 203.5 185.62 203.5 90.911 0 166.92-87.107 185.66-203.5h-371.28z" style="fill:url(#radialGradient4309)"/><path id="path4193" d="m551.41 346.56c0 13.843-81.244 25.064-181.46 25.064s-181.46-11.222-181.46-25.064c0-13.843 81.244-25.064 181.46-25.064s181.46 11.222 181.46 25.064z" transform="matrix(1.0234 0 0 1.6116 -10.017 -271.57)" style="fill:#eaeaea"/><path id="path4216" d="m551.41 346.56c0 13.843-81.244 25.064-181.46 25.064s-181.46-11.222-181.46-25.064c0-13.843 81.244-25.064 181.46-25.064s181.46 11.222 181.46 25.064z" transform="matrix(.98128 0 0 1.4117 5.5602 -205.8)" style="fill:url(#linearGradient4311)"/><path id="path4255" d="m368.59 267.72c-91.89 0-166.42 12.631-166.62 28.219 25.429 13.369 90.44 22.875 166.62 22.875 76.175 0 141.16-9.5089 166.59-22.875-0.2008-15.588-74.704-28.219-166.59-28.219z" style="fill:url(#linearGradient4313)"/><path id="path4271" d="m368.59 267.72c-87.769 0-159.71 11.539-166.16 26.156 107.47-8.4524 217.07-11.433 332.28 0-6.4479-14.617-78.356-26.156-166.12-26.156z" style="opacity:.04;fill:url(#linearGradient4315)"/><path id="path4293" d="m213.75 309.23c9.0001 2.9648 14.241 3.9652 20.516 5.5258 0 0 1.2916 65.75 23.592 103.41-24.432-33.615-44.951-65.463-44.108-108.94z" style="fill-opacity:.15116;fill:#fff"/></g></g><metadata/></svg>